<?xml version="1.0" standalone="no"?>
<!DOCTYPE svg PUBLIC "-//W3C//DTD SVG 20010904//EN"
 "http://www.w3.org/TR/2001/REC-SVG-20010904/DTD/svg10.dtd">
<svg version="1.0" xmlns="http://www.w3.org/2000/svg"
 width="256.000000pt" height="256.000000pt" viewBox="0 0 256.000000 256.000000"
 preserveAspectRatio="xMidYMid meet">
<metadata>
Created by potrace 1.14, written by Peter Selinger 2001-2017
</metadata>
<g transform="translate(0.000000,256.000000) scale(0.100000,-0.100000)"
fill="#000000" stroke="none">
<path d="M1290 2292 c-185 -14 -408 -104 -554 -224 -144 -119 -271 -301 -320
-458 -10 -30 -20 -62 -22 -70 -3 -9 -14 0 -30 28 -14 23 -28 42 -31 42 -14 0
-143 -76 -143 -84 0 -6 43 -88 96 -183 91 -164 96 -172 117 -162 27 14 331
181 335 185 5 3 -78 154 -85 154 -2 0 -24 -12 -49 -26 -24 -14 -44 -21 -44
-15 0 6 10 39 22 73 48 139 147 281 269 383 93 77 265 153 397 174 57 9 235 7
281 -3 161 -36 295 -105 410 -212 164 -152 256 -344 268 -564 13 -248 -65
-456 -237 -631 -117 -118 -230 -186 -385 -229 -89 -25 -249 -34 -331 -19 -27
5 -60 11 -74 14 -50 9 -145 46 -209 81 -75 41 -181 122 -181 138 0 6 -29 -19
-65 -54 -36 -35 -65 -67 -65 -70 0 -3 30 -31 68 -61 228 -185 492 -261 782
-223 409 54 740 353 851 769 29 107 32 334 6 445 -32 137 -102 290 -180 395
-50 67 -191 201 -253 241 -193 123 -424 183 -644 166z"/>
<path d="M1110 1620 c-19 -19 -20 -36 -20 -334 0 -173 3 -322 6 -330 10 -27
39 -37 70 -26 15 6 141 79 280 162 261 156 280 172 253 215 -8 14 -220 147
-347 218 -9 6 -54 32 -99 58 -97 57 -118 62 -143 37z"/>
</g>
</svg>
